<svg width="21" height="25" viewBox="0 0 21 25" fill="none" xmlns="http://www.w3.org/2000/svg">
<path d="M10.4999 12.5V20.1667M10.4999 20.1667L14.5712 17.6111M10.4999 20.1667L6.4285 17.6111M11.857 1.00111C11.7274 1 11.5819 1 11.4155 1H5.34306C3.82294 1 3.06231 1 2.4817 1.27854C1.97099 1.52355 1.55606 1.91422 1.29584 2.39507C1 2.94174 1 3.65789 1 5.08914V19.9114C1 21.3426 1 22.0579 1.29584 22.6045C1.55606 23.0854 1.97099 23.4767 2.4817 23.7217C3.06175 24 3.82145 24 5.33861 24H15.6611C17.1783 24 17.9369 24 18.5169 23.7217C19.0277 23.4767 19.444 23.0854 19.7042 22.6045C19.9997 22.0584 19.9997 21.3441 19.9997 19.9157V9.08282C19.9997 8.92601 19.9997 8.78883 19.9985 8.66667M11.857 1.00111C12.2446 1.00443 12.4899 1.01769 12.724 1.07061C13.0009 1.13321 13.2655 1.23673 13.5083 1.37684C13.7822 1.53483 14.0173 1.75621 14.4864 2.19792L18.7281 6.19159C19.1975 6.63358 19.4309 6.85396 19.5988 7.11186C19.7476 7.34051 19.8577 7.58983 19.9242 7.85059C19.9804 8.07091 19.9948 8.30187 19.9985 8.66667M11.857 1.00111V4.57778C11.857 6.00902 11.857 6.72415 12.1528 7.27081C12.4131 7.75167 12.828 8.14339 13.3387 8.3884C13.9187 8.66667 14.6784 8.66667 16.1956 8.66667H19.9985M19.9985 8.66667H20" stroke="#363639" stroke-width="1.5" stroke-linecap="round" stroke-linejoin="round"/>
</svg>
