<svg width="40" height="40" viewBox="0 0 40 40" fill="none" xmlns="http://www.w3.org/2000/svg">
<ellipse cx="20.2784" cy="20" rx="19.7217" ry="20" fill="#7C509A"/>
<path d="M26.4458 10.5459C22.6873 9.81803 18.7842 9.81803 15.0257 10.5459C13.3633 10.9099 11.2672 12.9479 10.9058 14.5493C10.2553 17.6792 10.2553 20.8819 10.9058 24.0118C11.3395 25.6131 13.4356 27.6512 15.0257 28.0152C15.098 28.0152 15.1703 28.0879 15.1703 28.1607V32.7464C15.1703 32.9648 15.4594 33.1103 15.604 32.892L17.7723 30.6355C17.7723 30.6355 19.507 28.8158 19.7961 28.5247C19.7961 28.5247 19.8684 28.4519 19.9407 28.4519C22.109 28.5247 24.3497 28.3063 26.518 27.9424C28.1804 27.5784 30.2765 25.5403 30.6379 23.939C31.2884 20.8091 31.2884 17.6064 30.6379 14.4765C30.2042 12.9479 28.1082 10.9099 26.4458 10.5459ZM26.518 24.2302C26.1566 24.958 25.723 25.5403 25.0002 25.9043C24.7833 25.9771 24.5665 26.0499 24.3497 26.1227C24.0606 26.0499 23.8437 25.9771 23.6269 25.9043C21.314 24.958 19.1456 23.6478 17.4109 21.7553C16.4713 20.6635 15.6762 19.4261 15.0257 18.1159C14.7366 17.4608 14.4475 16.8785 14.2307 16.2234C14.0138 15.6411 14.3752 15.0588 14.7366 14.6221C15.098 14.1853 15.5317 13.8942 16.0376 13.6758C16.399 13.4575 16.7604 13.603 17.0495 13.8942C17.6278 14.6221 18.206 15.35 18.6397 16.1506C18.9288 16.6601 18.8565 17.2425 18.3505 17.6064C18.206 17.6792 18.1337 17.752 17.9892 17.8976C17.9169 17.9703 17.7723 18.0431 17.7 18.1887C17.5555 18.4071 17.5555 18.6254 17.6278 18.8438C18.206 20.5179 19.2902 21.8281 20.9526 22.556C21.2417 22.7016 21.4585 22.7744 21.8199 22.7744C22.3259 22.7016 22.5427 22.1193 22.9041 21.8281C23.2655 21.537 23.6992 21.537 24.1328 21.7553C24.4942 21.9737 24.8556 22.2649 25.2893 22.556C25.6507 22.8472 26.0121 23.0655 26.3735 23.3567C26.5903 23.5023 26.6626 23.8662 26.518 24.2302ZM23.4823 18.771C23.3378 18.771 23.41 18.771 23.4823 18.771C23.1932 18.771 23.1209 18.6254 23.0487 18.4071C23.0487 18.2615 23.0487 18.0431 22.9764 17.8976C22.9041 17.6064 22.7595 17.3152 22.4704 17.0969C22.3259 17.0241 22.1813 16.9513 22.0368 16.8785C21.8199 16.8057 21.6754 16.8057 21.4585 16.8057C21.2417 16.7329 21.1694 16.5874 21.1694 16.369C21.1694 16.2234 21.3862 16.0778 21.5308 16.0778C22.6873 16.1506 23.5546 16.8057 23.6992 18.1887C23.6992 18.2615 23.6992 18.4071 23.6992 18.4799C23.6992 18.6254 23.6269 18.771 23.4823 18.771ZM22.7595 15.5683C22.3981 15.4227 22.0368 15.2772 21.6031 15.2044C21.4585 15.2044 21.2417 15.1316 21.0971 15.1316C20.8803 15.1316 20.7357 14.986 20.808 14.7676C20.808 14.5493 20.9526 14.4037 21.1694 14.4765C21.8922 14.5493 22.5427 14.6949 23.1932 14.986C24.4942 15.6411 25.217 16.7329 25.4339 18.1887C25.4339 18.2615 25.4339 18.3343 25.4339 18.4071C25.4339 18.5526 25.4339 18.6982 25.4339 18.9166C25.4339 18.9894 25.4339 19.0622 25.4339 19.135C25.3616 19.4261 24.8556 19.4989 24.7833 19.135C24.7833 19.0622 24.7111 18.9166 24.7111 18.8438C24.7111 18.1887 24.5665 17.5336 24.2774 16.9513C23.8437 16.2962 23.3378 15.8595 22.7595 15.5683ZM26.6626 19.9356C26.4458 19.9356 26.3012 19.7173 26.3012 19.4989C26.3012 19.0622 26.2289 18.6254 26.1566 18.1887C25.8675 15.8595 23.9883 13.967 21.7476 13.603C21.3863 13.5302 21.0249 13.5302 20.7357 13.4575C20.5189 13.4575 20.2298 13.4575 20.1575 13.1663C20.0852 12.9479 20.3021 12.7296 20.5189 12.7296C20.5912 12.7296 20.6635 12.7296 20.6635 12.7296C20.808 12.7296 23.6269 12.8024 20.6635 12.7296C23.6992 12.8024 26.2289 14.8404 26.7349 17.8976C26.8071 18.4071 26.8794 18.9166 26.8794 19.4989C27.024 19.7173 26.8794 19.9356 26.6626 19.9356Z" fill="white"/>
</svg>
