<svg width="44" height="43" viewBox="0 0 44 43" fill="none" xmlns="http://www.w3.org/2000/svg">
<rect x="0.5" y="0.5" width="43" height="42" rx="21" stroke="#363639"/>
<path d="M34 29.096C34 29.528 33.9039 29.972 33.6996 30.404C33.4952 30.836 33.2308 31.244 32.8823 31.628C32.2935 32.276 31.6445 32.744 30.9113 33.044C30.1903 33.344 29.4091 33.5 28.5679 33.5C27.342 33.5 26.032 33.212 24.65 32.624C23.2679 32.036 21.8859 31.244 20.5157 30.248C19.1337 29.24 17.8237 28.124 16.5739 26.888C15.336 25.64 14.2183 24.332 13.2208 22.964C12.2353 21.596 11.4422 20.228 10.8653 18.872C10.2884 17.504 10 16.196 10 14.948C10 14.132 10.1442 13.352 10.4327 12.632C10.7211 11.9 11.1778 11.228 11.8147 10.628C12.5839 9.872 13.4251 9.5 14.3145 9.5C14.651 9.5 14.9875 9.572 15.2879 9.716C15.6004 9.86 15.8768 10.076 16.0931 10.388L18.8813 14.312C19.0977 14.612 19.2539 14.888 19.362 15.152C19.4703 15.404 19.5303 15.656 19.5303 15.884C19.5303 16.172 19.4461 16.46 19.2779 16.736C19.1217 17.012 18.8933 17.3 18.6049 17.588L17.6915 18.536C17.5593 18.668 17.4993 18.824 17.4993 19.016C17.4993 19.112 17.5113 19.196 17.5353 19.292C17.5714 19.388 17.6074 19.46 17.6315 19.532C17.8478 19.928 18.2203 20.444 18.7491 21.068C19.2899 21.692 19.8668 22.328 20.4917 22.964C21.1407 23.6 21.7656 24.188 22.4027 24.728C23.0276 25.256 23.5443 25.616 23.9529 25.832C24.0131 25.856 24.0851 25.892 24.1692 25.928C24.2653 25.964 24.3616 25.976 24.4697 25.976C24.674 25.976 24.8303 25.904 24.9624 25.772L25.8759 24.872C26.1763 24.572 26.4647 24.344 26.7411 24.2C27.0175 24.032 27.294 23.948 27.5944 23.948C27.8228 23.948 28.0631 23.996 28.3275 24.104C28.5919 24.212 28.8683 24.368 29.1688 24.572L33.1467 27.392C33.4592 27.608 33.6755 27.86 33.8077 28.16C33.9279 28.46 34 28.76 34 29.096Z" stroke="#363639" stroke-miterlimit="10"/>
</svg>
