<svg width="41" height="40" viewBox="0 0 41 40" fill="none" xmlns="http://www.w3.org/2000/svg">
<ellipse cx="20.3522" cy="20" rx="20.0739" ry="20" fill="#48C95F"/>
<path d="M28.3085 12.0625C26.3256 10.0937 23.6817 9 20.891 9C15.0891 9 10.3889 13.6667 10.3889 19.4271C10.3889 21.25 10.903 23.0729 11.7843 24.6042L10.3154 30L15.897 28.5417C17.4392 29.3438 19.1284 29.7812 20.891 29.7812C26.6928 29.7812 31.393 25.1146 31.393 19.3542C31.3196 16.6563 30.2914 14.0312 28.3085 12.0625ZM25.9584 23.1458C25.7381 23.7292 24.7099 24.3125 24.1958 24.3854C23.7552 24.4583 23.1676 24.4583 22.5801 24.3125C22.2129 24.1667 21.6988 24.0208 21.1113 23.7292C18.4674 22.6354 16.7783 20.0104 16.6314 19.7917C16.4845 19.6458 15.5298 18.4062 15.5298 17.0937C15.5298 15.7812 16.1907 15.1979 16.411 14.9062C16.6314 14.6146 16.9251 14.6146 17.1455 14.6146C17.2923 14.6146 17.5127 14.6146 17.6595 14.6146C17.8064 14.6146 18.0267 14.5417 18.2471 15.0521C18.4674 15.5625 18.9815 16.875 19.0549 16.9479C19.1284 17.0938 19.1284 17.2396 19.0549 17.3854C18.9815 17.5312 18.908 17.6771 18.7612 17.8229C18.6143 17.9687 18.4674 18.1875 18.394 18.2604C18.2471 18.4062 18.1002 18.5521 18.2471 18.7708C18.394 19.0625 18.908 19.8646 19.7159 20.5937C20.7441 21.4687 21.5519 21.7604 21.8457 21.9063C22.1395 22.0521 22.2863 21.9792 22.4332 21.8333C22.5801 21.6875 23.0942 21.1042 23.2411 20.8125C23.388 20.5208 23.6083 20.5938 23.8286 20.6667C24.0489 20.7396 25.3709 21.3958 25.5912 21.5417C25.885 21.6875 26.0318 21.7604 26.1053 21.8333C26.1787 22.0521 26.1787 22.5625 25.9584 23.1458Z" fill="white"/>
</svg>
